
<svg viewBox="0 0 24 24" fill="none" xmlns="http://www.w3.org/2000/svg" xmlns:xlink="http://www.w3.org/1999/xlink">
	<defs>
		<clipPath id="clip76_447">
			<rect id="bxl-instagram.svg" rx="-0.500000" width="23.000000" height="23.000000" transform="translate(0.500000 0.500000)" fill="white" fill-opacity="0"/>
		</clipPath>
	</defs>
	<rect id="bxl-instagram.svg" rx="-0.500000" width="23.000000" height="23.000000" transform="translate(0.500000 0.500000)" fill="#FFFFFF" fill-opacity="0"/>
	<g clip-path="url(#clip76_447)">
		<path id="Vector" d="M11.99 7.37C10.77 7.37 9.59 7.86 8.72 8.73C7.86 9.59 7.37 10.77 7.37 12C7.37 13.22 7.86 14.4 8.72 15.27C9.59 16.13 10.77 16.62 11.99 16.62C13.22 16.62 14.4 16.13 15.26 15.27C16.13 14.4 16.62 13.22 16.62 12C16.62 10.77 16.13 9.59 15.26 8.73C14.4 7.86 13.22 7.37 11.99 7.37ZM11.99 15C11.2 15 10.43 14.68 9.87 14.12C9.31 13.56 8.99 12.79 8.99 12C8.99 11.2 9.31 10.43 9.87 9.87C10.43 9.31 11.2 8.99 11.99 8.99C12.79 8.99 13.55 9.31 14.12 9.87C14.68 10.43 15 11.2 15 12C15 12.79 14.68 13.56 14.12 14.12C13.55 14.68 12.79 15 11.99 15Z" fill="#FFFFFF" fill-opacity="1.000000" fill-rule="nonzero"/>
		<path id="Vector" d="M17.88 7.2C17.88 7.8 17.4 8.28 16.8 8.28C16.21 8.28 15.72 7.8 15.72 7.2C15.72 6.61 16.21 6.12 16.8 6.12C17.4 6.12 17.88 6.61 17.88 7.2Z" fill="#FFFFFF" fill-opacity="1.000000" fill-rule="evenodd"/>
		<path id="Vector" d="M20.53 6.11C20.3 5.51 19.94 4.97 19.49 4.51C19.04 4.06 18.49 3.71 17.9 3.47C17.2 3.21 16.46 3.07 15.71 3.05C14.75 3.01 14.44 3 12 3C9.56 3 9.24 3 8.29 3.05C7.54 3.07 6.8 3.21 6.11 3.47C5.51 3.71 4.96 4.06 4.51 4.51C4.06 4.97 3.7 5.51 3.47 6.11C3.21 6.81 3.07 7.55 3.05 8.29C3.01 9.25 3 9.56 3 12C3 14.44 3 14.76 3.05 15.71C3.07 16.46 3.21 17.2 3.47 17.9C3.7 18.5 4.06 19.04 4.51 19.49C4.96 19.95 5.51 20.3 6.11 20.53C6.8 20.8 7.54 20.96 8.29 20.98C9.25 21.02 9.56 21.04 12 21.04C14.44 21.04 14.76 21.04 15.71 20.98C16.46 20.97 17.2 20.82 17.9 20.56C18.5 20.33 19.04 19.98 19.49 19.52C19.94 19.07 20.3 18.53 20.53 17.93C20.79 17.23 20.93 16.49 20.95 15.74C20.99 14.78 21 14.48 21 12.03C21 9.59 21 9.28 20.95 8.32C20.94 7.57 20.79 6.82 20.53 6.11ZM19.31 15.64C19.3 16.21 19.2 16.79 19 17.33C18.85 17.71 18.62 18.07 18.32 18.36C18.03 18.66 17.68 18.89 17.29 19.04C16.75 19.24 16.19 19.34 15.62 19.35C14.67 19.39 14.4 19.4 11.96 19.4C9.53 19.4 9.28 19.4 8.31 19.35C7.74 19.34 7.17 19.24 6.64 19.04C6.25 18.89 5.89 18.66 5.6 18.36C5.3 18.07 5.07 17.72 4.92 17.33C4.72 16.79 4.62 16.23 4.61 15.66C4.57 14.71 4.56 14.44 4.56 12C4.56 9.57 4.56 9.32 4.61 8.35C4.62 7.77 4.72 7.2 4.92 6.66C5.22 5.87 5.85 5.25 6.64 4.95C7.17 4.75 7.74 4.65 8.31 4.64C9.26 4.6 9.53 4.58 11.96 4.58C14.4 4.58 14.65 4.58 15.62 4.64C16.19 4.64 16.75 4.75 17.29 4.95C17.68 5.1 18.03 5.33 18.32 5.62C18.62 5.92 18.85 6.27 19 6.66C19.2 7.2 19.3 7.76 19.31 8.33C19.35 9.28 19.36 9.55 19.36 11.99C19.36 14.42 19.36 14.68 19.32 15.64L19.31 15.64L19.31 15.64Z" fill="#FFFFFF" fill-opacity="1.000000" fill-rule="nonzero"/>
	</g>
</svg>
